HIERARCHY
ROOT hip
{
	OFFSET 0.000000 0.000000 0.000000
	CHANNELS 6 Xposition Yposition Zposition Xrotation Zrotation Yrotation 
	JOINT abdomen
	{
		OFFSET 0.000000 3.422050 0.000000
		CHANNELS 3 Xrotation Zrotation Yrotation 
		JOINT chest
		{
			OFFSET 0.000000 8.486693 -0.684411
			CHANNELS 3 Xrotation Zrotation Yrotation 
			JOINT neck
			{
				OFFSET 0.000000 10.266162 -0.273764
				CHANNELS 3 Xrotation Zrotation Yrotation 
				JOINT head
				{
					OFFSET 0.000000 3.148285 0.000000
					CHANNELS 3 Xrotation Zrotation Yrotation 
					End Site
					{
						OFFSET 0.000000 3.148289 0.000000
					}
				}
			}
			JOINT lCollar
			{
				OFFSET 3.422053 6.707223 -0.821293
				CHANNELS 3 Yrotation Zrotation Xrotation 
				JOINT lShldr
				{
					OFFSET 3.285171 0.000000 0.000000
					CHANNELS 3 Zrotation Yrotation Xrotation 
					JOINT lForeArm
					{
						OFFSET 10.129278 0.000000 0.000000
						CHANNELS 3 Yrotation Zrotation Xrotation 
						JOINT lHand
						{
							OFFSET 8.486692 0.000000 0.000000
							CHANNELS 3 Zrotation Yrotation Xrotation 
							End Site
							{
								OFFSET 4.106464 0.000000 0.000000
							}
						}
					}
				}
			}
			JOINT rCollar
			{
				OFFSET -3.558935 6.707223 -0.821293
				CHANNELS 3 Yrotation Zrotation Xrotation 
				JOINT rShldr
				{
					OFFSET -3.148289 0.000000 0.000000
					CHANNELS 3 Zrotation Yrotation Xrotation 
					JOINT rForeArm
					{
						OFFSET -10.266159 0.000000 0.000000
						CHANNELS 3 Yrotation Zrotation Xrotation 
						JOINT rHand
						{
							OFFSET -8.349810 0.000000 0.000000
							CHANNELS 3 Zrotation Yrotation Xrotation 
							End Site
							{
								OFFSET -4.106464 0.000000 0.000000
							}
						}
					}
				}
			}
		}
	}
	JOINT lThigh
	{
		OFFSET 5.338403 -1.642589 1.368821
		CHANNELS 3 Xrotation Zrotation Yrotation 
		JOINT lShin
		{
			OFFSET -2.053232 -20.121670 0.000000
			CHANNELS 3 Xrotation Zrotation Yrotation 
			JOINT lFoot
			{
				OFFSET 0.000000 -19.300380 -1.231939
				CHANNELS 3 Xrotation Yrotation Zrotation 
				End Site
				{
					OFFSET 0.000000 -2.463878 4.653993
				}
			}
		}
	}
	JOINT rThigh
	{
		OFFSET -5.338403 -1.642589 1.368821
		CHANNELS 3 Xrotation Zrotation Yrotation 
		JOINT rShin
		{
			OFFSET 2.053232 -20.121670 0.000000
			CHANNELS 3 Xrotation Zrotation Yrotation 
			JOINT rFoot
			{
				OFFSET 0.000000 -19.300380 -1.231939
				CHANNELS 3 Xrotation Yrotation Zrotation 
				End Site
				{
					OFFSET 0.000000 -2.463878 4.653993
				}
			}
		}
	}
}
MOTION
Frames: 10
Frame Time: 0.049989
0.000000 43.528500 0.000000 0.000000 0.000000 0.000000 0.000000 0.000000 0.000000 0.000000 0.000000 0.000000 0.000000 0.000000 0.000000 0.000000 0.000000 0.000000 0.000000 0.000000 0.000000 0.000000 0.000000 0.000000 0.000000 0.000000 0.000000 0.000000 0.000000 0.000000 0.000000 0.000000 0.000000 0.000000 0.000000 0.000000 0.000000 0.000000 0.000000 0.000000 0.000000 0.000000 0.000000 0.000000 0.000000 0.000000 0.000000 0.000000 0.000000 0.000000 0.000000 0.000000 0.000000 0.000000 0.000000 0.000000 0.000000 0.000000 0.000000 0.000000 
0.000000 5.996777 23.996880 -136.000031 0.000000 0.000000 50.847900 0.271715 -0.062507 12.185689 2.127960 2.128506 17.998348 0.000000 0.000000 8.998567 0.000000 0.000000 -43.597080 -6.329403 -6.069672 -51.979702 3.703586 2.244551 -56.597115 28.561043 -56.350246 -52.419819 -4.197424 20.390488 43.592964 6.326361 -6.068133 51.975826 -3.706648 2.243148 56.591778 -28.561731 -56.349743 52.415188 4.195056 20.388733 -98.474373 21.788799 11.542045 28.543676 2.764424 -0.291094 2.756881 -10.791052 6.072791 -97.226364 -11.936719 -3.983146 49.164543 1.366586 0.530961 13.257736 1.787666 -6.779926 
0.000000 5.996777 23.996880 -136.000031 0.000000 0.000000 50.847900 0.271715 -0.062507 11.464684 2.128062 2.128453 17.998348 0.000000 0.000000 8.714123 0.067076 -0.456666 -43.692505 -7.052412 -5.882459 -51.560806 3.716513 2.242715 -56.310211 28.650715 -56.486893 -52.674812 -3.939506 20.000895 43.668293 7.067752 -5.861335 51.554192 -3.721091 2.241959 56.298027 -28.650475 -56.489502 53.012691 3.816210 20.328194 -98.472763 21.441135 11.535633 28.543676 2.764424 -0.291094 2.756881 -10.791052 6.072791 -97.303902 -11.750487 -3.984195 48.664928 1.366467 0.530926 13.257736 1.787666 -6.779926 
0.000000 5.996777 23.996880 -136.000031 0.000000 0.000000 50.847893 0.271715 -0.062507 10.743222 2.128164 2.128399 17.998346 0.000000 0.000000 8.428784 0.131964 -0.914244 -43.785755 -7.776227 -5.696023 -51.141800 3.729455 2.240971 -56.022797 28.739780 -56.624161 -52.931587 -3.683236 19.610126 43.741104 7.809954 -5.655019 51.132454 -3.735546 2.240876 56.003754 -28.738602 -56.629906 53.610733 3.437781 20.263691 -98.471115 21.093418 11.529222 28.543674 2.764424 -0.291094 2.756881 -10.791052 6.072791 -97.381401 -11.564252 -3.985501 48.165154 1.366348 0.530891 13.257735 1.787666 -6.779926 
0.000000 5.996777 23.996880 -136.000031 0.000000 0.000000 50.847900 0.271715 -0.062507 10.021357 2.128264 2.128342 17.998350 0.000000 0.000000 8.142589 0.194646 -1.372706 -43.876850 -8.500784 -5.510327 -50.722729 3.742413 2.239324 -55.734867 28.828251 -56.762070 -53.190113 -3.428638 19.218201 43.811390 8.552890 -5.449141 50.710636 -3.750011 2.239900 55.708946 -28.826086 -56.770939 54.209293 3.059837 20.195219 -98.469421 20.745651 11.522813 28.543676 2.764424 -0.291094 2.756881 -10.791054 6.072792 -97.458878 -11.378011 -3.987065 47.665257 1.366229 0.530858 13.257736 1.787666 -6.779927 
0.000000 5.996777 23.996880 -136.000031 0.000000 0.000000 50.847904 0.271715 -0.062507 9.299150 2.128365 2.128286 17.998350 0.000000 0.000000 7.855554 0.255105 -1.832024 -43.965797 -9.226010 -5.325337 -50.303574 3.755383 2.237771 -55.446430 28.916122 -56.900612 -53.450378 -3.175746 18.825117 43.879143 9.296481 -5.243652 50.288742 -3.764486 2.239031 55.413628 -28.912943 -56.912624 54.808403 2.682452 20.122789 -98.467712 20.397856 11.516411 28.543676 2.764424 -0.291094 2.756881 -10.791053 6.072791 -97.536263 -11.191761 -3.988883 47.165241 1.366109 0.530826 13.257737 1.787666 -6.779927 
0.000000 5.996777 23.996880 -136.000031 0.000000 0.000000 50.847900 0.271715 -0.062507 8.576654 2.128464 2.128228 17.998348 0.000000 0.000000 7.567713 0.313326 -2.292168 -44.052597 -9.951832 -5.141014 -49.884373 3.768368 2.236313 -55.157509 29.003382 -57.039780 -53.712387 -2.924588 18.430893 43.944386 10.040652 -5.038509 49.866772 -3.778968 2.238269 55.117813 -28.999166 -57.054939 55.408035 2.305699 20.046396 -98.465950 20.050024 11.510010 28.543676 2.764424 -0.291094 2.756881 -10.791052 6.072791 -97.613647 -11.005510 -3.990955 46.665131 1.365989 0.530794 13.257736 1.787666 -6.779926 
0.000000 5.996777 23.996880 -136.000031 0.000000 0.000000 50.847897 0.271715 -0.062507 7.853930 2.128563 2.128169 17.998348 0.000000 0.000000 7.279095 0.369293 -2.753108 -44.137241 -10.678179 -4.957319 -49.465096 3.781362 2.234949 -54.868076 29.090029 -57.179569 -53.976093 -2.675192 18.035532 44.007084 10.785322 -4.833662 49.444752 -3.793456 2.237612 54.821491 -29.084753 -57.197895 56.008224 1.929647 19.966063 -98.464142 19.702166 11.503611 28.543676 2.764424 -0.291094 2.756881 -10.791052 6.072791 -97.690979 -10.819259 -3.993284 46.164940 1.365869 0.530764 13.257736 1.787666 -6.779926 
0.000000 5.996777 23.996880 -136.000031 0.000000 0.000000 50.847897 0.271715 -0.062507 7.131030 2.128660 2.128107 17.998346 0.000000 0.000000 6.989729 0.422992 -3.214814 -44.219742 -11.404980 -4.774216 -49.045795 3.794369 2.233682 -54.578156 29.176065 -57.320000 -54.241501 -2.427589 17.639044 44.067234 11.530412 -4.629064 49.022697 -3.807950 2.237063 54.524670 -29.169693 -57.341488 56.608955 1.554370 19.881786 -98.462318 19.354292 11.497212 28.543674 2.764424 -0.291094 2.756881 -10.791052 6.072791 -97.768280 -10.633005 -3.995867 45.664700 1.365748 0.530735 13.257735 1.787666 -6.779926 
0.000000 5.996777 23.996880 -136.000031 0.000000 0.000000 50.847900 0.271715 -0.062507 6.408017 2.128758 2.128045 17.998348 0.000000 0.000000 6.699645 0.474406 -3.677257 -44.300098 -12.132162 -4.591667 -48.626461 3.807385 2.232509 -54.287739 29.261480 -57.461029 -54.508602 -2.181808 17.241453 44.124851 12.275847 -4.424667 48.600605 -3.822449 2.236621 54.227364 -29.253984 -57.485687 57.210236 1.179940 19.793579 -98.460426 19.006401 11.490817 28.543678 2.764424 -0.291094 2.756881 -10.791052 6.072791 -97.845551 -10.446755 -3.998703 45.164410 1.365627 0.530707 13.257736 1.787666 -6.779926 
